<svg width="16" height="15" viewBox="0 0 16 15" fill="none" xmlns="http://www.w3.org/2000/svg">
<path d="M14.9627 5.70682L10.4996 5.05819L8.50449 1.01346C8.45 0.902716 8.36035 0.813068 8.24961 0.758576C7.97188 0.621466 7.63438 0.735724 7.49551 1.01346L5.50039 5.05819L1.03731 5.70682C0.91426 5.7244 0.80176 5.7824 0.715627 5.87029C0.611498 5.97732 0.554117 6.12131 0.556095 6.27062C0.558073 6.41993 0.619246 6.56235 0.726174 6.66658L3.95528 9.81483L3.19239 14.2603C3.1745 14.3637 3.18594 14.4701 3.22542 14.5673C3.2649 14.6646 3.33083 14.7488 3.41575 14.8105C3.50066 14.8722 3.60116 14.9088 3.70584 14.9163C3.81052 14.9237 3.9152 14.9017 4.00801 14.8527L8 12.7539L11.992 14.8527C12.101 14.9107 12.2275 14.9301 12.3488 14.909C12.6547 14.8562 12.8604 14.5662 12.8076 14.2603L12.0447 9.81483L15.2738 6.66658C15.3617 6.58045 15.4197 6.46795 15.4373 6.3449C15.4848 6.03729 15.2703 5.75252 14.9627 5.70682Z" fill="#FFD33C"/>
</svg>
